<svg width="1600" height="420" viewBox="0 0 1600 420" fill="none" xmlns="http://www.w3.org/2000/svg">
  <rect width="1600" height="420" fill="#D8C1A0"/>
  <rect width="1600" height="420" fill="url(#amberBg)"/>
  <path d="M0 319C93 280 182 262 268 265C370 269 436 333 527 337C645 342 723 251 830 228C932 207 1009 261 1115 269C1241 279 1338 230 1600 153V420H0V319Z" fill="#7E4F38" fill-opacity="0.4"/>
  <circle cx="292" cy="154" r="152" fill="url(#amberGlow)" fill-opacity="0.88"/>
  <circle cx="1250" cy="88" r="188" fill="#F7D7A7" fill-opacity="0.3"/>
  <rect x="764" y="-26" width="146" height="484" rx="70" fill="#A95534" fill-opacity="0.88"/>
  <rect x="940" y="-12" width="210" height="444" rx="104" fill="#B56D46" fill-opacity="0.48"/>
  <rect x="104" y="58" width="292" height="242" rx="128" fill="#2E2A26" fill-opacity="0.74"/>
  <rect x="145" y="96" width="212" height="170" rx="84" fill="#F7E8D4" fill-opacity="0.74"/>
  <circle cx="272" cy="171" r="18" fill="#F1B24D"/>
  <rect x="420" y="34" width="216" height="300" rx="108" fill="#3B352E" fill-opacity="0.52"/>
  <rect x="462" y="86" width="136" height="192" rx="68" fill="#857C72" fill-opacity="0.52"/>
  <path d="M1182 142C1182 86.772 1226.77 42 1282 42H1454C1509.23 42 1554 86.772 1554 142V314H1182V142Z" fill="#52624B" fill-opacity="0.7"/>
  <path d="M1219 162C1219 118.922 1253.92 84 1297 84H1439C1482.08 84 1517 118.922 1517 162V314H1219V162Z" stroke="#70806A" stroke-width="10" stroke-opacity="0.72"/>
  <path d="M1266 211L1292 181L1320 205L1350 176L1382 202L1415 175L1452 215" stroke="#B7A15E" stroke-width="9" stroke-linecap="round" stroke-linejoin="round" stroke-opacity="0.72"/>
  <rect x="0" y="344" width="1600" height="76" fill="#EBE0D1" fill-opacity="0.44"/>
  <defs>
    <linearGradient id="amberBg" x1="0" y1="0" x2="1506" y2="401" gradientUnits="userSpaceOnUse">
      <stop stop-color="#3A3128"/>
      <stop offset="0.28" stop-color="#463C31"/>
      <stop offset="0.56" stop-color="#9B4B2F"/>
      <stop offset="0.78" stop-color="#516148"/>
      <stop offset="1" stop-color="#7E725C"/>
    </linearGradient>
    <radialGradient id="amberGlow" cx="0" cy="0" r="1" gradientUnits="userSpaceOnUse" gradientTransform="translate(292 154) rotate(90) scale(152)">
      <stop stop-color="#FFF7E6"/>
      <stop offset="1" stop-color="#F7D08B" stop-opacity="0"/>
    </radialGradient>
  </defs>
</svg>
